# xmcd CD database file
#
# Track frame offsets:
#	150
#	7945
#	20886
#	32620
#	45449
#	55813
#	67400
#	79004
#	89123
#	102544
#	112718
#	127321
#	148380
#	157921
#	166113
#	178115
#	195645
#	201197
#	216025
#	230503
#
# Disc length: 3228 seconds
#
# Revision: 1
# Processed by: cddbd v1.5.2PL0 Copyright (c) Steve Scherf et al.
# Submitted via: jetAudio 5
#
DISCID=1e0c9a14
DTITLE=Various Country - That's Country CD-16
DYEAR=1900
DGENRE=Country
TTITLE0=ralph stanley - buckwheat
TTITLE1=mel tills - in the middle of the night
TTITLE2=patsy cline - If I could only
TTITLE3=ronnie McDowell - wandering eyes
TTITLE4=johnny cash - the ways of a woman in love
TTITLE5=conway twitty - I'm not through loving you
TTITLE6=jackson stonewall - Ol' blue talk
TTITLE7=barbara mandrell - kaw-liga
TTITLE8=barbara fairchild - crazy love
TTITLE9=hoyt axton - there's a tiger in the closet
TTITLE10=tammy wynette - till I can make it on my own
TTITLE11=tanya tucker - texas when I die
TTITLE12=ned miller - from a jack to a king
TTITLE13=willie nelson - you wouldn't cross the street
TTITLE14=bob wills - time changes everything
TTITLE15=atlanta - pictures
TTITLE16=george jones - liberty
TTITLE17=billie joe spears - chrystal chandeliers
TTITLE18=bellamy brothers - If I said you had a beautiful body
TTITLE19=carl perkins - rise and shine
EXTD=
EXTT0=
EXTT1=
EXTT2=
EXTT3=
EXTT4=
EXTT5=
EXTT6=
EXTT7=
EXTT8=
EXTT9=
EXTT10=
EXTT11=
EXTT12=
EXTT13=
EXTT14=
EXTT15=
EXTT16=
EXTT17=
EXTT18=
EXTT19=
PLAYORDER=
